<svg id="Capa_1" data-name="Capa 1" xmlns="http://www.w3.org/2000/svg" viewBox="0 0 190.23 188.21"><path d="M190.39,168.87l-.79-.79L170,186.9l.47.45,5.1,5.07c3.28,3.25,10.32,1.66,15.72-3.53s7.11-12,3.84-15.28l-4.78-4.74Z" transform="translate(-6.6 -5.89)"/><polygon points="178.28 157.59 158.72 176.39 163.44 181 183 162.19 182.44 161.64 182.43 161.65 178.28 157.59"/><path d="M82.82,5.9C41,5.59,6.92,38.43,6.6,79.23s33.31,74.11,75.09,74.42a76.59,76.59,0,0,0,42-12.05l41.68,40.69,19.56-18.8-41.4-40.42a72.37,72.37,0,0,0,14.43-42.74C158.22,39.53,124.6,6.2,82.82,5.9Zm.07,125.83c-29.38-.21-53-23.64-52.8-52.33S54.31,27.62,83.68,27.84s53,23.64,52.8,52.33S112.27,131.94,82.89,131.73Z" transform="translate(-6.6 -5.89)"/></svg>