<svg id="Capa_1" data-name="Capa 1" xmlns="http://www.w3.org/2000/svg" viewBox="0 0 181.26 180.63"><defs><style>.cls-1{fill:#141613;}</style></defs><path class="cls-1" d="M7.24,10.89V47.11A144.94,144.94,0,0,1,109.5,89.53a143.52,143.52,0,0,1,42.61,102h36.38C188.26,92,107.26,11.24,7.24,10.89Z" transform="translate(-7.24 -10.89)"/><path class="cls-1" d="M31.8,142.64a24.45,24.45,0,1,0,24.55,24.44A24.5,24.5,0,0,0,31.8,142.64Z" transform="translate(-7.24 -10.89)"/><path class="cls-1" d="M7.24,72.46v36.22c45.69.46,82.77,37.37,83.25,82.85h36.38C126.39,126,73.1,72.93,7.24,72.46Z" transform="translate(-7.24 -10.89)"/></svg>