<svg id="Capa_1" data-name="Capa 1" xmlns="http://www.w3.org/2000/svg" viewBox="0 0 197.75 171.48"><path d="M197.94,35a78.56,78.56,0,0,1-20,6c3.22-.57,7.94-6.7,9.84-9.18a39.57,39.57,0,0,0,6.63-12.75c.18-.37.3-.82,0-1.1a1.09,1.09,0,0,0-1.06.09,98.43,98.43,0,0,1-23.71,9.56,1.55,1.55,0,0,1-1.64-.45,20.48,20.48,0,0,0-2.07-2.24,41.77,41.77,0,0,0-11.49-7.41,38.1,38.1,0,0,0-17.61-3,40.61,40.61,0,0,0-16.72,5A43.54,43.54,0,0,0,106.59,31.1a44.51,44.51,0,0,0-8,17A48.27,48.27,0,0,0,98.11,66c.13,1,0,1.14-.81,1C64.73,61.92,37.73,49.64,15.82,23.34c-1-1.15-1.47-1.15-2.25.08C4,38.57,8.63,62.89,20.61,74.85c1.6,1.6,3.24,3.19,5,4.64C25,79.63,17,78.72,9.9,74.85c-1-.63-1.43-.27-1.51.87a26.67,26.67,0,0,0,.26,4.91C10.48,96,20.58,110.18,34.4,115.72a23.41,23.41,0,0,0,5.22,1.69c-3.15.72-6.39,1.24-15.42.5-1.12-.23-1.55.36-1.12,1.5C29.86,138.89,44.5,144.69,55.47,148c1.47.27,2.94.27,4.41.64-.09.14-.17.14-.26.27C56,154.75,43.37,159.09,37.5,161.25a75.5,75.5,0,0,1-33.61,4.54c-1.8-.28-2.18-.26-2.67,0s-.07.78.51,1.27c2.3,1.59,4.63,3,7,4.37A108.21,108.21,0,0,0,31.2,180.9C71.56,192.64,117,184,147.35,152.28c23.8-24.91,32.14-59.27,32.14-93.68,0-1.34,1.51-2.09,2.41-2.8a81.11,81.11,0,0,0,15.81-17.32,5.49,5.49,0,0,0,1-3.31V35C198.75,34.44,198.74,34.6,197.94,35Z" transform="translate(-1 -14.43)"/></svg>